<svg width="17" height="17" viewBox="0 0 17 17" fill="none" xmlns="http://www.w3.org/2000/svg">
<g clip-path="url(#clip0_39_2197)">
<path d="M12.983 8.34906H14.1688C14.4369 8.34906 14.655 8.13095 14.655 7.86287V6.67705C14.655 6.40897 14.4369 6.19086 14.1688 6.19086H12.983C12.7149 6.19086 12.4968 6.40897 12.4968 6.67705V7.86287C12.4968 8.13095 12.7149 8.34906 12.983 8.34906ZM12.9948 6.6889H14.1569V7.85101H12.9948V6.6889ZM12.983 11.5034H14.1688C14.4369 11.5034 14.655 11.2852 14.655 11.0172V9.83135C14.655 9.56326 14.4369 9.34515 14.1688 9.34515H12.983C12.7149 9.34515 12.4968 9.56326 12.4968 9.83135V11.0172C12.4968 11.2852 12.7149 11.5034 12.983 11.5034ZM12.9948 9.8432H14.1569V11.0053H12.9948V9.8432ZM9.59905 8.34906H10.7849C11.0529 8.34906 11.2711 8.13095 11.2711 7.86287V6.67705C11.2711 6.40897 11.0529 6.19086 10.7849 6.19086H9.59905C9.33097 6.19086 9.11286 6.40897 9.11286 6.67705V7.86287C9.11286 8.13095 9.33097 8.34906 9.59905 8.34906ZM9.6109 6.6889H10.773V7.85101H9.6109V6.6889ZM4.01701 12.3516H2.83119C2.56311 12.3516 2.345 12.5697 2.345 12.8378V14.0236C2.345 14.2917 2.56311 14.5098 2.83119 14.5098H4.01701C4.28509 14.5098 4.5032 14.2917 4.5032 14.0236V12.8378C4.5032 12.5697 4.28509 12.3516 4.01701 12.3516ZM4.00515 14.0117H2.84305V12.8496H4.00515V14.0117ZM4.01701 6.19086H2.83119C2.56311 6.19086 2.345 6.40897 2.345 6.67705V7.86287C2.345 8.13095 2.56311 8.34906 2.83119 8.34906H4.01701C4.28509 8.34906 4.5032 8.13095 4.5032 7.86287V6.67705C4.5032 6.40893 4.28509 6.19086 4.01701 6.19086ZM4.00515 7.85101H2.84305V6.6889H4.00515V7.85101ZM9.59905 11.4294H10.7849C11.0529 11.4294 11.2711 11.2113 11.2711 10.9432V9.7574C11.2711 9.48932 11.0529 9.27121 10.7849 9.27121H9.59905C9.33097 9.27121 9.11286 9.48932 9.11286 9.7574V10.9432C9.11286 11.2113 9.33097 11.4294 9.59905 11.4294ZM9.6109 9.76926H10.773V10.9314H9.6109V9.76926ZM14.9023 1.138H13.8376V0.757264C13.8376 0.339701 13.4979 0 13.0804 0H12.966C12.5485 0 12.2088 0.339701 12.2088 0.757264V1.138H4.79121V0.757264C4.79121 0.339701 4.4515 0 4.03394 0H3.91959C3.50203 0 3.16233 0.339701 3.16233 0.757264V1.138H2.09767C1.4102 1.138 0.850891 1.69731 0.850891 2.38478V15.7549C0.850891 16.4415 1.40943 17 2.09601 17H14.904C15.5906 17 16.1492 16.4415 16.1492 15.7549V2.38478C16.1491 1.69731 15.5898 1.138 14.9023 1.138ZM12.7068 0.757264C12.7068 0.614324 12.8231 0.498047 12.966 0.498047H13.0804C13.2233 0.498047 13.3396 0.614324 13.3396 0.757264V1.138H12.7068V0.757264ZM3.66041 0.757264C3.66041 0.614324 3.77668 0.498047 3.91962 0.498047H4.03398C4.17691 0.498047 4.29319 0.614324 4.29319 0.757264V1.138H3.66044V0.757264H3.66041ZM15.6511 15.7549C15.6511 16.1668 15.316 16.502 14.904 16.502H2.09598C1.68402 16.502 1.3489 16.1668 1.3489 15.7549V15.7533C1.55755 15.9105 1.8169 16.0039 2.09767 16.0039H12.1942C12.5272 16.0039 12.8403 15.8742 13.0758 15.6387L15.6511 13.0634V15.7549ZM12.8217 15.1885C12.8412 15.1079 12.8518 15.0238 12.8518 14.9374V13.2751C12.8518 12.9616 13.1069 12.7066 13.4203 12.7066H15.0826C15.1691 12.7066 15.2531 12.696 15.3337 12.6765L12.8217 15.1885ZM15.6511 4.69671H5.04023C4.9027 4.69671 4.79121 4.80821 4.79121 4.94574C4.79121 5.08327 4.9027 5.19476 5.04023 5.19476H15.6511V11.6401C15.6511 11.9536 15.3961 12.2086 15.0826 12.2086H13.4203C12.8322 12.2086 12.3538 12.687 12.3538 13.2751V14.9374C12.3538 15.2509 12.0987 15.5059 11.7853 15.5059H2.09767C1.68482 15.5059 1.34894 15.17 1.34894 14.7571V5.19476H4.04414C4.18166 5.19476 4.29316 5.08327 4.29316 4.94574C4.29316 4.80821 4.18166 4.69671 4.04414 4.69671H1.3489V2.38478C1.3489 1.97193 1.68479 1.63605 2.09764 1.63605H3.16233V2.36825C3.16233 2.78581 3.50203 3.12551 3.91959 3.12551C4.05712 3.12551 4.16861 3.01401 4.16861 2.87649C4.16861 2.73896 4.05712 2.62746 3.91959 2.62746C3.77665 2.62746 3.66037 2.51119 3.66037 2.36825V1.63605H12.2088V2.36825C12.2088 2.78581 12.5485 3.12551 12.966 3.12551C13.1036 3.12551 13.2151 3.01401 13.2151 2.87649C13.2151 2.73896 13.1036 2.62746 12.966 2.62746C12.8231 2.62746 12.7068 2.51119 12.7068 2.36825V1.63605H14.9024C15.3152 1.63605 15.6511 1.97193 15.6511 2.38478V4.69671ZM4.01701 9.27121H2.83119C2.56311 9.27121 2.345 9.48932 2.345 9.7574V10.9432C2.345 11.2113 2.56311 11.4294 2.83119 11.4294H4.01701C4.28509 11.4294 4.5032 11.2113 4.5032 10.9432V9.7574C4.5032 9.48929 4.28509 9.27121 4.01701 9.27121ZM4.00515 10.9314H2.84305V9.76926H4.00515V10.9314ZM6.21512 8.34906H7.40094C7.66902 8.34906 7.88713 8.13095 7.88713 7.86287V6.67705C7.88713 6.40897 7.66902 6.19086 7.40094 6.19086H6.21512C5.94704 6.19086 5.72893 6.40897 5.72893 6.67705V7.86287C5.72893 8.13095 5.94704 8.34906 6.21512 8.34906ZM6.22698 6.6889H7.38908V7.85101H6.22698V6.6889ZM9.61061 14.0117C9.60443 13.8797 9.49542 13.7745 9.36185 13.7745C9.22432 13.7745 9.11282 13.886 9.11282 14.0236C9.11282 14.2917 9.33094 14.5098 9.59902 14.5098H10.7848C11.0529 14.5098 11.271 14.2917 11.271 14.0236V12.8378C11.271 12.5697 11.0529 12.3516 10.7848 12.3516H9.59902C9.33094 12.3516 9.11282 12.5697 9.11282 12.8378V13.1797C9.11282 13.3173 9.22432 13.4288 9.36185 13.4288C9.49938 13.4288 9.61087 13.3173 9.61087 13.1797V12.8496H10.773V14.0117H9.61061ZM6.21512 11.4294H7.40094C7.66902 11.4294 7.88713 11.2113 7.88713 10.9432V9.7574C7.88713 9.48932 7.66902 9.27121 7.40094 9.27121H6.21512C5.94704 9.27121 5.72893 9.48932 5.72893 9.7574V10.9432C5.72893 11.2113 5.94704 11.4294 6.21512 11.4294ZM6.22698 9.76926H7.38908V10.9314H6.22698V9.76926ZM6.21512 14.5098H7.40094C7.66902 14.5098 7.88713 14.2917 7.88713 14.0236V12.8378C7.88713 12.5697 7.66902 12.3516 7.40094 12.3516H6.21512C5.94704 12.3516 5.72893 12.5697 5.72893 12.8378V14.0236C5.72893 14.2917 5.94704 14.5098 6.21512 14.5098ZM6.22698 12.8496H7.38908V14.0117H6.22698V12.8496Z" fill="#E85230"/>
</g>
<defs>
<clipPath id="clip0_39_2197">
<rect width="17" height="17" fill="white"/>
</clipPath>
</defs>
</svg>
