<svg width="17" height="17" viewBox="0 0 17 17" fill="none" xmlns="http://www.w3.org/2000/svg">
<path d="M0.177063 7.23493C0.177063 4.42417 2.87245 2.30176 5.98653 2.30176C8.4647 2.30176 10.6619 3.63609 11.4692 5.59504C11.5054 5.68289 11.4424 5.7782 11.3477 5.78604C11.084 5.80786 10.8221 5.84529 10.5639 5.89769C10.498 5.91108 10.4315 5.87746 10.4021 5.817C9.71947 4.41573 8.04279 3.36426 5.98653 3.36426C3.27046 3.36426 1.23956 5.18345 1.23956 7.23493C1.23956 8.34322 1.81609 9.36666 2.78551 10.0903C2.91984 10.1905 2.99897 10.3483 2.99897 10.516V11.1823L4.09522 10.8776C4.19069 10.851 4.29169 10.8517 4.38679 10.8796C4.81939 11.0062 5.2818 11.0832 5.76406 11.1014C5.84058 11.1043 5.90223 11.1659 5.90553 11.2424C5.91868 11.5455 5.95927 11.8382 6.02463 12.1197C6.03033 12.1443 6.0118 12.168 5.98653 12.1681C5.37806 12.1681 4.79016 12.0887 4.23706 11.9409L2.61001 12.3932C2.45004 12.4377 2.27849 12.4048 2.14629 12.3044C2.0141 12.2039 1.93647 12.0474 1.93647 11.8814V10.7741C0.866991 9.89141 0.177063 8.64246 0.177063 7.23493Z" fill="#E85230"/>
<path d="M4.85552 5.84973C4.85552 6.26617 4.51794 6.60377 4.1015 6.60377C3.68506 6.60377 3.34747 6.26617 3.34747 5.84973C3.34747 5.43329 3.68506 5.0957 4.1015 5.0957C4.51794 5.0957 4.85552 5.43329 4.85552 5.84973Z" fill="#E85230"/>
<path d="M7.87164 6.60377C8.28808 6.60377 8.62569 6.26617 8.62569 5.84973C8.62569 5.43329 8.28808 5.0957 7.87164 5.0957C7.45522 5.0957 7.11761 5.43329 7.11761 5.84973C7.11761 6.26617 7.45522 6.60377 7.87164 6.60377Z" fill="#E85230"/>
<path d="M10.3033 10.7502C10.6677 10.7502 10.9631 10.4548 10.9631 10.0905C10.9631 9.72607 10.6677 9.43066 10.3033 9.43066C9.93896 9.43066 9.64355 9.72607 9.64355 10.0905C9.64355 10.4548 9.93896 10.7502 10.3033 10.7502Z" fill="#E85230"/>
<path d="M14.1678 10.0905C14.1678 10.4548 13.8724 10.7502 13.508 10.7502C13.1437 10.7502 12.8483 10.4548 12.8483 10.0905C12.8483 9.72607 13.1437 9.43066 13.508 9.43066C13.8724 9.43066 14.1678 9.72607 14.1678 10.0905Z" fill="#E85230"/>
<path fill-rule="evenodd" clip-rule="evenodd" d="M11.8898 6.9834C14.518 6.9834 16.8196 8.77735 16.8196 11.1829C16.8196 12.3721 16.2468 13.2687 15.3567 14.0169V14.8981C15.3567 15.0641 15.2791 15.2206 15.1469 15.3211C15.0147 15.4215 14.8432 15.4544 14.6832 15.41L13.3505 15.0395C12.8889 15.1607 12.3993 15.2256 11.8931 15.2256C9.2649 15.2256 6.96338 13.4316 6.96338 11.0261C6.96338 8.6205 9.26155 6.9834 11.8898 6.9834ZM15.7604 11.0261C15.7604 9.37976 14.1234 7.88904 11.8931 7.88904C9.6629 7.88904 8.02588 9.37976 8.02588 11.0261C8.02588 12.6723 9.6629 14.1631 11.8931 14.1631C12.3537 14.1631 12.7939 14.0976 13.2014 13.9783C13.2965 13.9504 13.3975 13.9497 13.493 13.9763L14.2942 14.199V13.7603C14.2942 13.5926 14.3734 13.4348 14.5077 13.3345C15.2972 12.7453 15.7604 11.9171 15.7604 11.0261Z" fill="#E85230"/>
</svg>
