<svg width="86" height="86" viewBox="0 0 86 86" fill="none" xmlns="http://www.w3.org/2000/svg">
<path d="M76.0561 78.1956L43.0029 53.4599L9.94208 78.1956L8.10229 75.7354L41.1555 50.9997C42.2428 50.1903 43.757 50.1888 44.8427 50.9997L77.8974 75.7354L76.0561 78.1956Z" fill="#8A8A8A"/>
<path d="M76.9776 78.5012H9.02229C8.17457 78.5012 7.48657 77.8147 7.48657 76.9655V33.6107C7.48657 33.1177 7.72307 32.6555 8.12236 32.3668L42.1 7.7892C42.6375 7.40067 43.3624 7.40067 43.8999 7.7892L77.8776 32.3668C78.2769 32.6555 78.5134 33.1177 78.5134 33.6107V76.9655C78.5134 77.8147 77.8269 78.5012 76.9776 78.5012ZM10.558 75.4297H75.4419V34.3955L43 10.9297L10.558 34.3955V75.4297Z" fill="#8A8A8A"/>
<path d="M33.4848 53.4551C33.1654 53.4551 32.8429 53.3569 32.5664 53.1495L8.77054 35.3414C8.09175 34.8331 7.95354 33.8702 8.46033 33.1914C8.96865 32.5111 9.93154 32.3744 10.6103 32.8812L34.4062 50.6893C35.085 51.1977 35.2232 52.1605 34.7164 52.8393C34.4139 53.2417 33.9532 53.4551 33.4848 53.4551Z" fill="#8A8A8A"/>
<path d="M76.0166 32.3994L77.8573 34.8609L49.1466 56.3312L47.3059 53.8697L76.0166 32.3994Z" fill="#8A8A8A"/>
<path d="M21.1605 43.4561C20.3128 43.4561 19.6248 42.7681 19.6248 41.9204V31.0982C19.6248 30.2505 20.3128 29.5625 21.1605 29.5625H64.8347C65.6824 29.5625 66.3704 30.249 66.3704 31.0967L66.3734 35.0957C66.3734 35.9449 65.687 36.6314 64.8393 36.6329C63.9915 36.6329 63.302 35.9465 63.302 35.0987V32.6339H22.6977V41.9204C22.6962 42.7681 22.0097 43.4561 21.1605 43.4561Z" fill="#8A8A8A"/>
<path d="M57.9241 41.2233H28.076C27.2283 41.2233 26.5403 40.5353 26.5403 39.6876C26.5403 38.8399 27.2283 38.1519 28.076 38.1519H57.9241C58.7734 38.1519 59.4599 38.8399 59.4599 39.6876C59.4599 40.5353 58.7734 41.2233 57.9241 41.2233Z" fill="#8A8A8A"/>
<path d="M50.2455 48.2291H35.7545C34.9068 48.2291 34.2188 47.5427 34.2188 46.6934C34.2188 45.8442 34.9068 45.1577 35.7545 45.1577H50.2455C51.0947 45.1577 51.7812 45.8442 51.7812 46.6934C51.7812 47.5427 51.0947 48.2291 50.2455 48.2291Z" fill="#8A8A8A"/>
</svg>
