<svg width="30" height="30" viewBox="0 0 30 30" fill="none" xmlns="http://www.w3.org/2000/svg">
<path d="M26.9125 18.1624L20.6625 24.4124C20.5767 24.5046 20.4732 24.5784 20.3582 24.6297C20.2432 24.6809 20.1191 24.7085 19.9932 24.7107C19.8673 24.7129 19.7423 24.6898 19.6255 24.6426C19.5088 24.5955 19.4028 24.5253 19.3137 24.4362C19.2247 24.3472 19.1545 24.2412 19.1074 24.1244C19.0602 24.0077 19.0371 23.8827 19.0393 23.7568C19.0415 23.6309 19.0691 23.5068 19.1203 23.3918C19.1715 23.2768 19.2454 23.1733 19.3375 23.0874L23.9863 18.4374H7.50003C7.25139 18.4374 7.01293 18.3387 6.83712 18.1629C6.6613 17.987 6.56253 17.7486 6.56253 17.4999C6.56253 17.2513 6.6613 17.0129 6.83712 16.837C7.01293 16.6612 7.25139 16.5624 7.50003 16.5624H26.25C26.4353 16.5626 26.6164 16.6177 26.7704 16.7207C26.9245 16.8237 27.0445 16.9701 27.1154 17.1413C27.1863 17.3125 27.2048 17.5009 27.1687 17.6826C27.1326 17.8644 27.0435 18.0313 26.9125 18.1624ZM23.4375 11.2499C23.4375 11.0013 23.3388 10.7629 23.1629 10.587C22.9871 10.4112 22.7487 10.3124 22.5 10.3124H6.01378L10.6625 5.66245C10.7546 5.57662 10.8285 5.47312 10.8798 5.35812C10.931 5.24312 10.9585 5.11898 10.9608 4.9931C10.963 4.86722 10.9398 4.74219 10.8927 4.62545C10.8455 4.50872 10.7754 4.40267 10.6863 4.31365C10.5973 4.22463 10.4913 4.15445 10.3745 4.10729C10.2578 4.06014 10.1328 4.03699 10.0069 4.03921C9.881 4.04143 9.75686 4.06898 9.64186 4.12022C9.52686 4.17146 9.42336 4.24534 9.33753 4.33745L3.08753 10.5874C2.95658 10.7186 2.86743 10.8855 2.83132 11.0673C2.79522 11.249 2.81378 11.4374 2.88467 11.6086C2.95556 11.7798 3.0756 11.9262 3.22961 12.0292C3.38363 12.1322 3.56473 12.1873 3.75003 12.1874H22.5C22.7487 12.1874 22.9871 12.0887 23.1629 11.9129C23.3388 11.737 23.4375 11.4986 23.4375 11.2499Z" fill="white"/>
</svg>
