<svg width="25" height="25" viewBox="0 0 25 25" fill="none" xmlns="http://www.w3.org/2000/svg">
<g clip-path="url(#clip0_39_546)">
<path d="M24.7633 23.6399L18.3087 17.2884C19.9989 15.452 21.0375 13.0234 21.0375 10.3509C21.0367 4.63387 16.3278 0 10.5186 0C4.7094 0 0.000488281 4.63387 0.000488281 10.3509C0.000488281 16.0678 4.7094 20.7017 10.5186 20.7017C13.0285 20.7017 15.3306 19.8335 17.1389 18.3902L23.6185 24.7667C23.9342 25.0777 24.4468 25.0777 24.7625 24.7667C25.079 24.4557 25.079 23.9509 24.7633 23.6399ZM10.5186 19.1092C5.60338 19.1092 1.61884 15.1879 1.61884 10.3509C1.61884 5.51376 5.60338 1.59254 10.5186 1.59254C15.4338 1.59254 19.4183 5.51376 19.4183 10.3509C19.4183 15.1879 15.4338 19.1092 10.5186 19.1092Z" fill="white"/>
</g>
<defs>
<clipPath id="clip0_39_546">
<rect width="25" height="25" fill="white"/>
</clipPath>
</defs>
</svg>
