<svg width="15" height="15" viewBox="0 0 15 15" fill="none" xmlns="http://www.w3.org/2000/svg">
<g clip-path="url(#clip0_39_800)">
<path d="M14.9581 7.34349C14.2145 6.05828 13.1454 4.98032 11.8662 4.22625C10.5482 3.44927 9.03838 3.03857 7.50009 3.03857C5.9618 3.03857 4.45198 3.44927 3.13392 4.22625C1.85475 4.98035 0.785612 6.05828 0.0421118 7.34349C-0.0138745 7.44032 -0.0138745 7.55965 0.0421118 7.65649C0.785612 8.94173 1.85475 10.0197 3.13392 10.7737C4.45201 11.5507 5.9618 11.9614 7.50009 11.9614C9.03838 11.9614 10.5482 11.5507 11.8662 10.7737C13.1454 10.0197 14.2145 8.94173 14.9581 7.65649C15.0141 7.55962 15.0141 7.44032 14.9581 7.34349ZM11.5488 10.2353C10.3268 10.9556 8.92682 11.3364 7.50006 11.3364C6.0733 11.3364 4.67326 10.9556 3.45131 10.2353C2.31692 9.56659 1.36058 8.62333 0.67602 7.49996C1.36058 6.37661 2.31692 5.43335 3.45131 4.76463C4.67326 4.0443 6.0733 3.66353 7.50006 3.66353C8.92682 3.66353 10.3268 4.0443 11.5488 4.76463C12.6832 5.43335 13.6395 6.37658 14.3241 7.49996C13.6395 8.62333 12.6832 9.56659 11.5488 10.2353Z" fill="#8B929A"/>
<path d="M7.50006 4.69189C5.95168 4.69189 4.69202 5.95155 4.69202 7.49994C4.69202 9.04832 5.95168 10.308 7.50006 10.308C9.04844 10.308 10.3081 9.04832 10.3081 7.49994C10.3081 5.95159 9.04841 4.69189 7.50006 4.69189ZM7.50006 9.68302C6.29632 9.68302 5.31701 8.7037 5.31701 7.49994C5.31701 6.2962 6.29632 5.31688 7.50006 5.31688C8.70383 5.31688 9.68314 6.2962 9.68314 7.49994C9.68314 8.7037 8.70383 9.68302 7.50006 9.68302Z" fill="#8B929A"/>
</g>
<defs>
<clipPath id="clip0_39_800">
<rect width="15" height="15" fill="white"/>
</clipPath>
</defs>
</svg>
