<svg width="47" height="46" viewBox="0 0 47 46" fill="none" xmlns="http://www.w3.org/2000/svg">
<g id="017-quote">
<path id="Vector" d="M9.85519 27.6593C8.91112 30.0416 7.41888 32.4 5.42056 34.6699C4.78464 35.3922 4.70391 36.4233 5.21981 37.2354C5.61709 37.8601 6.2853 38.216 6.99282 38.216C7.19216 38.216 7.39502 38.1879 7.59506 38.1296C11.8304 36.8922 21.7097 32.4968 21.975 18.4475C22.0775 13.0225 18.1096 8.36188 12.9429 7.83685C10.0952 7.55186 7.24621 8.47698 5.13488 10.3855C3.02075 12.296 1.80786 15.0236 1.80786 17.8699C1.80786 22.6182 5.1784 26.7707 9.85519 27.6593ZM7.06231 12.5185C8.40505 11.3049 10.0952 10.6585 11.8872 10.6585C12.1406 10.6585 12.3961 10.6711 12.6523 10.6978C16.3422 11.0719 19.1744 14.4523 19.1 18.3928C18.9168 28.1141 13.6532 32.4905 9.29438 34.4481C10.6736 32.5825 11.7574 30.6635 12.528 28.7185C12.8285 27.9611 12.7786 27.1146 12.3919 26.3959C11.9869 25.642 11.2646 25.1072 10.4118 24.9282C7.09179 24.234 4.68286 21.265 4.68286 17.8698C4.68286 15.8357 5.55041 13.8852 7.06231 12.5185Z" fill="#D1D1D1"/>
<path id="Vector_2" d="M28.177 37.2351C28.5743 37.8598 29.2425 38.2156 29.9501 38.2156C30.1494 38.2156 30.3515 38.1876 30.5523 38.1293C34.7876 36.8919 44.6662 32.4965 44.9315 18.4472C45.0326 13.0222 41.0654 8.36155 35.898 7.83653C33.0469 7.54664 30.2028 8.47596 28.0914 10.3851C25.9773 12.2957 24.7644 15.0233 24.7644 17.8695C24.7644 22.6179 28.135 26.7704 32.811 27.659C31.8663 30.0434 30.374 32.4018 28.3764 34.6703C27.7405 35.3933 27.6604 36.4237 28.177 37.2351ZM35.4839 28.7196C35.7843 27.9622 35.7351 27.1157 35.3491 26.397C34.9434 25.6424 34.2218 25.1076 33.3683 24.9279C30.0483 24.2337 27.6394 21.2647 27.6394 17.8695C27.6394 15.8347 28.5069 13.8848 30.0188 12.5182C31.3609 11.3046 33.0511 10.6582 34.8437 10.6582C35.0964 10.6582 35.3519 10.6708 35.6088 10.6975C39.298 11.0716 42.1309 14.452 42.0565 18.3924C41.874 28.1145 36.6097 32.4902 32.2509 34.4478C33.6294 32.5836 34.7118 30.6646 35.4839 28.7196Z" fill="#D1D1D1"/>
</g>
</svg>
