<svg width="20" height="20" viewBox="0 0 20 20" fill="none" xmlns="http://www.w3.org/2000/svg">
<g clip-path="url(#clip0_39_13612)">
<path d="M15.846 0.716514C15.7874 0.657917 15.7079 0.624999 15.625 0.625H14.6875C14.6046 0.624999 14.5251 0.657917 14.4665 0.716514L13.8415 1.34151C13.8125 1.37053 13.7895 1.40499 13.7738 1.4429C13.7581 1.48082 13.75 1.52146 13.75 1.5625C13.75 1.60354 13.7581 1.64418 13.7738 1.6821C13.7895 1.72001 13.8125 1.75447 13.8415 1.78349L13.9331 1.875L13.4375 2.37055L13.346 2.27901C13.2874 2.22043 13.2079 2.18752 13.125 2.18752C13.0421 2.18752 12.9627 2.22043 12.904 2.27901L9.46654 5.71651C9.41972 5.76333 9.38898 5.82381 9.37875 5.88923C9.36852 5.95465 9.37934 6.02162 9.40963 6.0805C9.43993 6.13937 9.48814 6.1871 9.54732 6.2168C9.6065 6.24651 9.67358 6.25665 9.73889 6.24576C10.3725 6.14057 11.023 6.21792 11.6143 6.46876C11.1634 7.38137 10.5239 8.18791 9.73823 8.83511C8.95252 9.48231 8.03844 9.95544 7.05635 10.2232L6.55621 10.3596C6.0594 10.3141 5.55865 10.3785 5.0895 10.5482C4.62034 10.7179 4.19428 10.9887 3.84154 11.3415L0.716538 14.4665C0.687517 14.4955 0.664496 14.53 0.64879 14.5679C0.633084 14.6058 0.625 14.6465 0.625 14.6875C0.625 14.7285 0.633084 14.7692 0.64879 14.8071C0.664496 14.845 0.687517 14.8795 0.716538 14.9085L1.96654 16.1585C2.02515 16.2171 2.10463 16.25 2.1875 16.25C2.27038 16.25 2.34986 16.2171 2.40847 16.1585L3.125 15.442L4.55805 16.875L3.84154 17.5915C3.81252 17.6205 3.7895 17.655 3.77379 17.6929C3.75808 17.7308 3.75 17.7715 3.75 17.8125C3.75 17.8535 3.75808 17.8942 3.77379 17.9321C3.7895 17.97 3.81252 18.0045 3.84154 18.0335L5.09154 19.2835C5.15015 19.3421 5.22963 19.375 5.3125 19.375C5.39538 19.375 5.47486 19.3421 5.53347 19.2835L8.65847 16.1585C9.0113 15.8057 9.28217 15.3797 9.45187 14.9105C9.62157 14.4413 9.68594 13.9406 9.6404 13.4437L9.77679 12.9436C10.0446 11.9616 10.5177 11.0475 11.1649 10.2618C11.8121 9.47608 12.6186 8.83663 13.5312 8.38569C13.782 8.977 13.8594 9.62747 13.7543 10.2611C13.7434 10.3264 13.7535 10.3935 13.7832 10.4527C13.8129 10.5118 13.8606 10.5601 13.9195 10.5904C13.9784 10.6207 14.0453 10.6315 14.1108 10.6213C14.1762 10.611 14.2366 10.5803 14.2835 10.5335L17.721 7.09599C17.75 7.06697 17.773 7.03251 17.7887 6.9946C17.8044 6.95668 17.8125 6.91604 17.8125 6.875C17.8125 6.83396 17.8044 6.79332 17.7887 6.7554C17.773 6.71749 17.75 6.68303 17.721 6.65401L17.6295 6.5625L18.125 6.06695L18.2165 6.15849C18.2751 6.21708 18.3546 6.25 18.4375 6.25C18.5204 6.25 18.5999 6.21708 18.6585 6.15849L19.2835 5.53349C19.3421 5.47488 19.375 5.39539 19.375 5.3125V4.375C19.375 4.29211 19.3421 4.21262 19.2835 4.15401L15.846 0.716514ZM7.27904 14.779C7.04097 15.0171 6.72772 15.1652 6.39267 15.1982C6.05761 15.2312 5.72148 15.147 5.44154 14.96C5.16161 14.7729 4.95519 14.4946 4.85746 14.1724C4.75973 13.8502 4.77673 13.5041 4.90557 13.1931C5.03441 12.8821 5.26712 12.6253 5.56404 12.4666C5.86097 12.3079 6.20373 12.257 6.53394 12.3227C6.86415 12.3884 7.16136 12.5666 7.37495 12.8268C7.58854 13.0871 7.70527 13.4133 7.70527 13.75C7.70509 14.1359 7.55179 14.506 7.27904 14.779ZM4.77904 15.221C5.13122 15.5722 5.59743 15.7859 6.09341 15.8234C6.58939 15.8608 7.08241 15.7196 7.48337 15.4253L7.98289 15.9248C7.44843 16.3508 6.77579 16.5651 6.0934 16.5267C5.41101 16.4883 4.76666 16.1999 4.28338 15.7166C3.80009 15.2333 3.51172 14.589 3.47331 13.9066C3.4349 13.2242 3.64916 12.5516 4.07516 12.0171L4.57451 12.5165C4.27964 12.9173 4.13814 13.4104 4.17566 13.9066C4.21318 14.4028 4.42725 14.8691 4.77904 15.221ZM2.89557 13.1714C2.8301 13.5544 2.8301 13.9457 2.89557 14.3286L2.31696 13.75L2.89557 13.1714ZM2.1875 15.4956L1.37944 14.6875L1.875 14.192L2.68306 15L2.1875 15.4956ZM5.3125 18.6206L4.50444 17.8125L5 17.317L5.80805 18.125L5.3125 18.6206ZM6.25 17.6831L5.67136 17.1044C6.05423 17.1712 6.44577 17.1712 6.82864 17.1044L6.25 17.6831ZM8.42484 15.4829L7.9255 14.9835C8.22046 14.5828 8.36202 14.0896 8.32452 13.5934C8.28701 13.0973 8.07292 12.631 7.72107 12.2791C7.36922 11.9273 6.90292 11.7132 6.40674 11.6757C5.91057 11.6382 5.41738 11.7797 5.01664 12.0747L4.51712 11.5752C5.05158 11.1492 5.72422 10.9349 6.40661 10.9733C7.089 11.0117 7.73334 11.3001 8.21663 11.7834C8.69991 12.2667 8.98829 12.911 9.02669 13.5934C9.0651 14.2758 8.85085 14.9484 8.42484 15.4829ZM11.1891 9.30641C10.3502 10.1461 9.71304 11.1655 9.32567 12.2874C8.98984 11.58 8.42002 11.0102 7.71254 10.6743C8.83452 10.287 9.85385 9.64979 10.6936 8.81088C11.292 8.21335 11.789 7.52234 12.1653 6.76501C12.3525 6.889 12.5268 7.0314 12.6856 7.19009L12.8099 7.31438C12.9686 7.47323 13.111 7.64755 13.235 7.83475C12.4777 8.21098 11.7867 8.70804 11.1891 9.30641ZM14.4202 9.51283C14.3716 8.51826 13.9552 7.57724 13.2519 6.87241L13.1276 6.74812C12.4228 6.0447 11.4817 5.62831 10.4872 5.5798L13.125 2.94193L17.0581 6.875L14.4202 9.51283ZM17.1875 6.12055L13.8795 2.8125L14.375 2.31695L17.6831 5.625L17.1875 6.12055ZM18.75 5.18307L18.4375 5.49557L14.5044 1.5625L14.8169 1.25H15.4956L18.75 4.50443V5.18307Z" fill="black"/>
<path d="M14.0625 6.875C14.2479 6.875 14.4292 6.82002 14.5833 6.717C14.7375 6.61399 14.8577 6.46757 14.9286 6.29627C14.9996 6.12496 15.0182 5.93646 14.982 5.7546C14.9458 5.57275 14.8565 5.4057 14.7254 5.27459C14.5943 5.14348 14.4273 5.05419 14.2454 5.01801C14.0635 4.98184 13.875 5.00041 13.7037 5.07136C13.5324 5.14232 13.386 5.26248 13.283 5.41665C13.18 5.57082 13.125 5.75208 13.125 5.9375C13.1253 6.18605 13.2241 6.42435 13.3999 6.6001C13.5757 6.77586 13.8139 6.87472 14.0625 6.875ZM14.0625 5.625C14.1243 5.625 14.1847 5.64333 14.2361 5.67767C14.2875 5.712 14.3276 5.76081 14.3512 5.81791C14.3749 5.87501 14.3811 5.93785 14.369 5.99847C14.3569 6.05909 14.3272 6.11477 14.2835 6.15847C14.2398 6.20218 14.1841 6.23194 14.1235 6.244C14.0628 6.25605 14 6.24987 13.9429 6.22621C13.8858 6.20256 13.837 6.16251 13.8027 6.11112C13.7683 6.05973 13.75 5.99931 13.75 5.9375C13.7501 5.85465 13.783 5.77522 13.8416 5.71663C13.9002 5.65805 13.9796 5.6251 14.0625 5.625Z" fill="black"/>
<path d="M10.4043 12.4085L13.1253 15.1295V17.1875C13.1253 17.2704 13.1582 17.3499 13.2168 17.4085L14.7793 18.971C14.8379 19.0296 14.9174 19.0625 15.0003 19.0625H17.1878C17.2706 19.0625 17.3501 19.0296 17.4087 18.971L18.9712 17.4085C19.0298 17.3499 19.0628 17.2704 19.0628 17.1875V15C19.0628 14.9172 19.0298 14.8377 18.9712 14.7791L17.4087 13.2166C17.3501 13.158 17.2706 13.125 17.1878 13.125H15.1297L12.0962 10.0916L11.6543 10.5335L14.5583 13.4375L13.4378 14.5581L10.8462 11.9666L10.4043 12.4085ZM15.1297 13.75H17.0583L18.4378 15.1295V17.0581L17.0583 18.4375H15.1297L13.7503 17.0581V15.1295L15.1297 13.75Z" fill="black"/>
<path d="M2.27903 6.47099C2.33764 6.52958 2.41712 6.5625 2.5 6.5625H4.55805L7.59153 9.59599L8.03346 9.15401L5.12943 6.25L6.25 5.12943L9.46653 8.34599L9.90847 7.90401L6.5625 4.55805V2.5C6.5625 2.41711 6.52957 2.33762 6.47097 2.27901L4.90847 0.716514C4.84986 0.657917 4.77038 0.624999 4.6875 0.625H2.5C2.43819 0.625 2.37777 0.643328 2.32638 0.677668C2.27499 0.712007 2.23493 0.760815 2.21128 0.817919C2.18763 0.875023 2.18144 0.937858 2.1935 0.998479C2.20556 1.0591 2.23533 1.11478 2.27903 1.15849L4.0625 2.94193V3.62057L3.62057 4.0625H2.94193L1.15847 2.27901C1.11476 2.23532 1.05908 2.20556 0.998459 2.19351C0.937841 2.18146 0.875012 2.18765 0.817913 2.2113C0.760814 2.23496 0.712011 2.27501 0.677673 2.32639C0.643335 2.37778 0.625005 2.4382 0.625 2.5V4.6875C0.625001 4.77039 0.657926 4.84988 0.716534 4.90849L2.27903 6.47099ZM1.25 3.25443L2.59153 4.59599C2.65014 4.65458 2.72962 4.6875 2.8125 4.6875H3.75C3.83288 4.6875 3.91236 4.65458 3.97097 4.59599L4.59597 3.97099C4.65457 3.91238 4.6875 3.83289 4.6875 3.75V2.8125C4.6875 2.72961 4.65457 2.65012 4.59597 2.59151L3.25443 1.25H4.55807L5.9375 2.62943V4.55805L4.55805 5.9375H2.62943L1.25 4.55807V3.25443Z" fill="black"/>
<path d="M14.779 16.7835L15.404 17.4085C15.4626 17.4671 15.5421 17.5 15.625 17.5H16.5625C16.6454 17.5 16.7249 17.4671 16.7835 17.4085L17.4085 16.7835C17.4671 16.7249 17.5 16.6454 17.5 16.5625V15.625C17.5 15.5421 17.4671 15.4626 17.4085 15.404L16.7835 14.779C16.7249 14.7204 16.6454 14.6875 16.5625 14.6875H15.625C15.5421 14.6875 15.4626 14.7204 15.404 14.779L14.779 15.404C14.7204 15.4626 14.6875 15.5421 14.6875 15.625V16.5625C14.6875 16.6454 14.7204 16.7249 14.779 16.7835ZM15.3125 15.7544L15.7544 15.3125H16.4331L16.875 15.7544V16.4331L16.4331 16.875H15.7544L15.3125 16.4331V15.7544Z" fill="black"/>
<path d="M6.47123 6.02898L6.0293 6.47095L8.06063 8.50211L8.50257 8.06014L6.47123 6.02898Z" fill="black"/>
<path d="M11.6275 11.1852L11.1855 11.6272L13.2169 13.6584L13.6588 13.2164L11.6275 11.1852Z" fill="black"/>
</g>
<defs>
<clipPath id="clip0_39_13612">
<rect width="20" height="20" fill="white"/>
</clipPath>
</defs>
</svg>
