<svg width="20" height="20" viewBox="0 0 20 20" fill="none" xmlns="http://www.w3.org/2000/svg">
<path d="M5.14648 7.36664V12.7512C5.14648 14.0373 6.19507 15.0836 7.48398 15.0836H7.62375V15.7112C7.62375 15.8838 7.76367 16.0237 7.93625 16.0237H8.39981V17.7736C8.39981 18.6566 9.11819 19.375 10.0014 19.375C10.8844 19.375 11.6028 18.6566 11.6028 17.7736V16.0237H12.0663C12.2389 16.0237 12.3788 15.8838 12.3788 15.7112V15.0836H12.5206C13.8066 15.0836 14.8529 14.0373 14.8529 12.7512V7.36664C14.8529 5.57283 13.5323 4.08558 11.8131 3.8154C11.8788 3.7056 11.9344 3.58963 11.9795 3.46817H13.8603C14.2645 3.46817 14.5934 3.13934 14.5934 2.73514C14.5934 2.33093 14.2645 2.00195 13.8603 2.00195H11.9784C11.6791 1.19928 10.907 0.625 10.0014 0.625C9.09559 0.625 8.32348 1.19928 8.02418 2.00195H6.06125C5.65994 2.00195 5.3334 2.33093 5.3334 2.73514C5.3334 3.13934 5.65994 3.46817 6.06125 3.46817H8.02309C8.06818 3.58969 8.12387 3.70573 8.18954 3.81557C6.46843 4.08621 5.14648 5.57322 5.14648 7.36664ZM10.9778 17.7736C10.9778 18.3119 10.5397 18.75 10.0014 18.75C9.46289 18.75 9.02481 18.3119 9.02481 17.7736V16.0237H10.9778V17.7736ZM11.7538 15.3987H11.2903H8.71231H8.24875V13.6461C8.24875 12.6797 9.03503 11.8935 10.0014 11.8935C10.9677 11.8935 11.7538 12.6797 11.7538 13.6461V15.3987ZM14.2279 7.36664V12.7512C14.2279 13.6926 13.4621 14.4586 12.5206 14.4586H12.3788V13.6461C12.3788 12.3351 11.3123 11.2685 10.0014 11.2685C8.69034 11.2685 7.62375 12.3351 7.62375 13.6461V14.4586H7.48398C6.53976 14.4586 5.77148 13.6926 5.77148 12.7512V7.36664C5.77148 5.74427 7.07996 4.42331 8.69856 4.39505C9.05783 4.67789 9.5097 4.84818 10.0014 4.84818C10.493 4.84818 10.9449 4.67785 11.3042 4.39495C12.9207 4.42228 14.2279 5.74368 14.2279 7.36664ZM13.8603 2.62695C13.9189 2.62695 13.9684 2.67654 13.9684 2.73514C13.9684 2.79572 13.9209 2.84317 13.8603 2.84317H12.1075C12.1093 2.8076 12.1129 2.7725 12.1129 2.73651C12.1129 2.69953 12.1092 2.66348 12.1073 2.62695H13.8603ZM10.0014 1.25C10.8211 1.25 11.4879 1.91681 11.4879 2.73651C11.4879 3.55621 10.8211 4.22318 10.0014 4.22318C9.18167 4.22318 8.51471 3.55621 8.51471 2.73651C8.51471 1.91681 9.18167 1.25 10.0014 1.25ZM6.06125 2.84317C6.00449 2.84317 5.9584 2.79465 5.9584 2.73514C5.9584 2.67746 6.00647 2.62695 6.06125 2.62695H7.89526C7.89337 2.66348 7.88971 2.69953 7.88971 2.73651C7.88971 2.7725 7.89331 2.8076 7.89511 2.84317H6.06125Z" fill="black"/>
<path d="M11.2227 9.85184C11.2227 10.5537 11.7936 11.1247 12.4955 11.1247C13.1974 11.1247 13.7686 10.5537 13.7686 9.85184C13.7686 9.14993 13.1974 8.5788 12.4955 8.5788C11.7936 8.5788 11.2227 9.14993 11.2227 9.85184ZM12.4955 9.2038C12.8529 9.2038 13.1436 9.49448 13.1436 9.85184C13.1436 10.209 12.8529 10.4997 12.4955 10.4997C12.1383 10.4997 11.8477 10.209 11.8477 9.85184C11.8477 9.49448 12.1383 9.2038 12.4955 9.2038Z" fill="black"/>
<path d="M7.50742 8.5788C6.80551 8.5788 6.23438 9.14993 6.23438 9.85184C6.23438 10.5537 6.80551 11.1247 7.50742 11.1247C8.20932 11.1247 8.7803 10.5537 8.7803 9.85184C8.7803 9.14993 8.20932 8.5788 7.50742 8.5788ZM7.50742 10.4997C7.15005 10.4997 6.85938 10.209 6.85938 9.85184C6.85938 9.49448 7.15005 9.2038 7.50742 9.2038C7.86462 9.2038 8.1553 9.49448 8.1553 9.85184C8.1553 10.209 7.86462 10.4997 7.50742 10.4997Z" fill="black"/>
<path d="M10.002 5.68945C9.82938 5.68945 9.68945 5.82938 9.68945 6.00195V10.114C9.68945 10.2866 9.82938 10.4265 10.002 10.4265C10.1745 10.4265 10.3145 10.2866 10.3145 10.114V6.00195C10.3145 5.82938 10.1745 5.68945 10.002 5.68945Z" fill="black"/>
</svg>
