<svg width="20" height="20" viewBox="0 0 20 20" fill="none" xmlns="http://www.w3.org/2000/svg">
<g clip-path="url(#clip0_57_5214)">
<path d="M16.4766 15.681C16.4218 15.6445 16.3575 15.625 16.2917 15.625H13.9583V12.9583C13.9583 12.8699 13.9232 12.7851 13.8607 12.7226C13.7982 12.6601 13.7134 12.625 13.625 12.625H13.2917V11.9583H12.625V12.625H12.2917C12.2033 12.625 12.1185 12.6601 12.056 12.7226C11.9935 12.7851 11.9583 12.8699 11.9583 12.9583V13.2315L10.625 13.0093V12.9583C10.625 12.8699 10.5899 12.7851 10.5274 12.7226L10.3188 12.5141L10.8689 10.6439L11.4923 10.8468L10.9828 12.5283L11.6208 12.7217L12.187 10.8531L13.294 10.1827C13.3617 10.1418 13.4126 10.0781 13.4376 10.003L13.7709 9.00304C13.7849 8.96123 13.7904 8.91706 13.7871 8.8731C13.7839 8.82915 13.772 8.78627 13.7521 8.74695C13.7321 8.70763 13.7046 8.67265 13.6711 8.64404C13.6375 8.61543 13.5987 8.59376 13.5567 8.58027L12.9711 8.39202L13.9915 8.28999L13.9252 7.62665L13.141 7.70507L13.3359 7.06183L14.32 6.97797L14.2634 6.31375L13.544 6.37505L13.7493 5.69756C13.8973 5.58876 14.0211 5.4505 14.113 5.29149C14.205 5.13248 14.263 4.95617 14.2834 4.77364C14.3039 4.59112 14.2863 4.40633 14.2318 4.23093C14.1774 4.05552 14.0872 3.89329 13.967 3.75444L15.194 2.52737C15.2435 2.47789 15.2762 2.4141 15.2874 2.34504C15.2986 2.27598 15.2878 2.20514 15.2565 2.14256L14.9232 1.47589C14.901 1.43156 14.8692 1.39274 14.8301 1.36224C14.7911 1.33174 14.7457 1.31033 14.6973 1.29958L11.6973 0.632914C11.6226 0.616342 11.5444 0.625968 11.4759 0.660177L10.8093 0.99351C10.7539 1.02119 10.7073 1.06375 10.6748 1.11641C10.6422 1.16906 10.625 1.22974 10.625 1.29165V2.96422L7.52959 2.10439C7.39815 2.06742 7.25977 2.0624 7.12599 2.08975C6.99222 2.11709 6.86691 2.17602 6.76052 2.26161C6.65414 2.3472 6.56975 2.45698 6.51439 2.5818C6.45903 2.70662 6.4343 2.84286 6.44227 2.97917C6.23425 3.00972 6.0421 3.10799 5.89555 3.25875C5.74901 3.40951 5.65624 3.60437 5.6316 3.81317C5.60695 4.02197 5.65182 4.23308 5.75924 4.41381C5.86667 4.59454 6.03067 4.73484 6.22586 4.81297L7.31381 5.24815L7.61071 8.16788L7.28594 8.49264C7.25224 8.07509 7.06271 7.68549 6.755 7.40124C6.44729 7.11698 6.04391 6.95888 5.625 6.95832H2.29167C1.84979 6.95882 1.42616 7.13458 1.11371 7.44703C0.801258 7.75948 0.625502 8.18311 0.625 8.62499V18.9583C0.625502 19.4002 0.801258 19.8238 1.11371 20.1363C1.42616 20.4487 1.84979 20.6245 2.29167 20.625H5.625C6.06688 20.6245 6.49051 20.4487 6.80296 20.1363C7.11541 19.8238 7.29117 19.4002 7.29167 18.9583V16.625H7.62501V17.2917C7.62501 17.3801 7.66013 17.4649 7.72264 17.5274C7.78515 17.5899 7.86993 17.625 7.95834 17.625H8.05543C9.40494 17.6269 10.7375 17.926 11.9583 18.5011V18.9583C11.9583 19.0467 11.9935 19.1315 12.056 19.194C12.1185 19.2565 12.2033 19.2917 12.2917 19.2917H15.625C15.7134 19.2917 15.7982 19.2565 15.8607 19.194C15.9232 19.1315 15.9583 19.0467 15.9583 18.9583V18.2478L17.4401 19.2357C17.4949 19.2722 17.5592 19.2917 17.625 19.2917H20.625V18.625H17.7259L15.8119 17.349L15.8106 17.3481L15.8099 17.3477L15.8099 17.3477C15.7552 17.3111 15.6908 17.2916 15.625 17.2917H15.0964L14.0964 16.2917H16.1907L18.1068 17.569C18.1615 17.6055 18.2259 17.625 18.2917 17.625H20.625V16.9583H18.3926L16.4766 15.681ZM13.2917 13.2917V13.9583H12.625V13.2917H13.2917ZM12.625 14.625H13.2917V16.625H12.625V14.625ZM11.9583 14.9583H10.9583C10.9531 14.9583 10.948 14.9589 10.9428 14.9591L11.1157 14.3883L10.4777 14.195L10.0813 15.5033C9.81995 15.4481 9.55675 15.4037 9.29168 15.37V14.625H9.62501C9.71341 14.625 9.79819 14.5899 9.86071 14.5274L10.5274 13.8607C10.5753 13.8126 10.6075 13.7511 10.6195 13.6842L11.9583 13.9074V14.9583ZM7.95834 12.2917V13.9583H7.29167V12.3967L9.56475 9.14949C9.61267 9.08103 9.63313 8.99708 9.62208 8.91426L9.00674 4.29918L11.6933 5.04548C11.7135 5.10586 11.7379 5.16471 11.7665 5.22158L10.93 5.29287L10.9866 5.9571L11.567 5.90764L11.3752 6.55987L10.5967 6.62621L10.6533 7.29043L11.1733 7.24612L11.0207 7.76501L10.4145 7.57014C10.3309 7.54328 10.2402 7.55047 10.1619 7.59014C10.0835 7.62982 10.0241 7.69878 9.99629 7.78205L9.66295 8.78205C9.64911 8.82359 9.64358 8.86744 9.64668 8.91111C9.64978 8.95478 9.66146 8.99741 9.68104 9.03657L10.2891 10.2526L9.77656 11.995C9.72966 11.971 9.67772 11.9584 9.62501 11.9583H8.29167C8.20327 11.9583 8.11848 11.9934 8.05597 12.056C7.99346 12.1185 7.95834 12.2033 7.95834 12.2917ZM13.625 4.62498C13.625 4.75684 13.5859 4.88573 13.5127 4.99536C13.4394 5.105 13.3353 5.19045 13.2135 5.2409C13.0916 5.29136 12.9576 5.30457 12.8283 5.27884C12.699 5.25312 12.5802 5.18962 12.4869 5.09639C12.3937 5.00315 12.3302 4.88437 12.3045 4.75504C12.2788 4.62572 12.292 4.49168 12.3424 4.36986C12.3929 4.24804 12.4783 4.14393 12.588 4.07067C12.6976 3.99742 12.8265 3.95832 12.9583 3.95832C13.1351 3.95852 13.3045 4.02882 13.4295 4.1538C13.5545 4.27878 13.6248 4.44824 13.625 4.62498ZM8.62501 13.9583V12.625H9.48695L9.95834 13.0964V13.4869L9.48695 13.9583H8.62501ZM12.8439 9.67597L11.867 10.2676L10.8816 9.94697L10.3391 8.86189L10.5244 8.30573L13.0319 9.11185L12.8439 9.67597ZM12.4226 7.77691L11.6906 7.85012L11.8861 7.18538L12.6208 7.12277L12.4226 7.77691ZM12.8289 6.43598L12.0879 6.49913L12.2797 5.84689L12.4024 5.83643C12.5767 5.91685 12.7664 5.95844 12.9583 5.95832C12.9635 5.95832 12.9686 5.95798 12.9738 5.95793L12.8289 6.43598ZM11.2917 1.49766L11.6682 1.30939L14.3978 1.91596L14.5528 2.22581L14.1821 2.59646L11.2917 2.01837V1.49766ZM11.2917 2.69827L13.6156 3.16303L13.4085 3.37005C13.2358 3.30797 13.0522 3.28231 12.8691 3.29467C12.686 3.30703 12.5074 3.35715 12.3446 3.44188L11.2917 3.1494V2.69827ZM7.11636 2.87165C7.13198 2.82466 7.16507 2.78549 7.20878 2.76224C7.25249 2.73898 7.30347 2.73343 7.35116 2.74673L11.7918 3.98021C11.7287 4.09379 11.6827 4.21604 11.6553 4.34301L7.24767 3.11866C7.22247 3.11164 7.19895 3.09957 7.17855 3.08318C7.15816 3.06679 7.14131 3.04643 7.12902 3.02332C7.11674 3.00022 7.10929 2.97486 7.10711 2.94879C7.10493 2.92271 7.10808 2.89647 7.11636 2.87165ZM8.28997 8.25792L7.95663 4.97988C7.95047 4.91932 7.92785 4.86161 7.89121 4.813C7.85457 4.76439 7.80532 4.72673 7.74881 4.70413L6.47348 4.19399C6.40481 4.16653 6.34928 4.1138 6.31829 4.04665C6.28731 3.9795 6.28323 3.90303 6.30689 3.83296C6.33055 3.76289 6.38016 3.70455 6.44551 3.66993C6.51086 3.63531 6.58699 3.62705 6.65825 3.64683L8.30832 4.10517L8.9441 8.87361L7.29167 11.2342V9.42974L8.19404 8.52737C8.22902 8.49239 8.25577 8.45006 8.27237 8.40346C8.28896 8.35685 8.29497 8.30714 8.28997 8.25792ZM4.29167 7.62499V19.9583H3.625V7.62499H4.29167ZM1.31592 19.1765L2.1426 19.5898L2.44074 18.9935L1.29167 18.419V17.831L2.1426 18.2565L2.44074 17.6602L1.29167 17.0856V16.4977L2.1426 16.9231L2.44074 16.3269L1.29167 15.7523V15.1643L2.1426 15.5898L2.44074 14.9935L1.29167 14.419V13.831L2.1426 14.2565L2.44074 13.6602L1.29167 13.0856V12.4977L2.1426 12.9231L2.44074 12.3269L1.29167 11.7523V11.1643L2.1426 11.5898L2.44074 10.9935L1.29167 10.419V9.83099L2.1426 10.2565L2.44074 9.66019L1.29167 9.08565V8.62499C1.29176 8.58373 1.29439 8.54253 1.29955 8.5016L2.1426 8.92312L2.44074 8.32685L1.59816 7.90556C1.78411 7.7255 2.03283 7.62488 2.29167 7.62499H2.95834V19.9583H2.29167C2.06446 19.958 1.84411 19.8804 1.6668 19.7384C1.48949 19.5963 1.36575 19.3981 1.31592 19.1765ZM5.625 19.9583H4.95834V7.62499H5.625C5.88384 7.62488 6.13256 7.7255 6.31851 7.90556L5.47594 8.32685L5.77407 8.92312L6.61712 8.5016C6.62228 8.54253 6.62491 8.58373 6.62501 8.62499V9.08565L5.47594 9.66019L5.77407 10.2565L6.62501 9.83099V10.419L5.47594 10.9935L5.77407 11.5898L6.62501 11.1643V11.7523L5.47594 12.3269L5.77407 12.9231L6.62501 12.4977V13.0856L5.47594 13.6602L5.77407 14.2565L6.62501 13.831V14.419L5.47594 14.9935L5.77407 15.5898L6.62501 15.1643V15.7523L5.47594 16.3269L5.77407 16.9231L6.62501 16.4977V17.0856L5.47594 17.6602L5.77407 18.2565L6.62501 17.831V18.419L5.47594 18.9935L5.77407 19.5898L6.60075 19.1765C6.55092 19.3981 6.42719 19.5963 6.24988 19.7384C6.07257 19.8804 5.85222 19.958 5.625 19.9583ZM7.95834 15.2917C7.86993 15.2917 7.78515 15.3268 7.72264 15.3893C7.66013 15.4518 7.62501 15.5366 7.62501 15.625V15.9583H7.29167V14.625H8.62501V15.3085C8.43564 15.2975 8.24578 15.2919 8.05543 15.2917H7.95834ZM8.29167 16.9612V15.9614C9.16297 15.9836 10.0266 16.1307 10.8561 16.3981C10.9061 16.4142 10.9592 16.4182 11.0111 16.4099C11.063 16.4016 11.1121 16.3812 11.1546 16.3502C11.1971 16.3193 11.2316 16.2788 11.2554 16.2319C11.2793 16.1851 11.2917 16.1333 11.2917 16.0808V15.625H11.9583V17.7689C10.799 17.2676 9.55431 16.9934 8.29167 16.9612ZM14.9583 17.9583H15.2917V18.625H12.625V17.2917H13.625C13.6929 17.2916 13.7591 17.2709 13.8149 17.2321C13.8706 17.1934 13.9132 17.1386 13.9369 17.075L14.7226 17.8607C14.7852 17.9232 14.8699 17.9583 14.9583 17.9583Z" fill="#2B313E"/>
</g>
<defs>
<clipPath id="clip0_57_5214">
<rect width="20" height="20" fill="white"/>
</clipPath>
</defs>
</svg>
