<svg width="28" height="28" viewBox="0 0 28 28" fill="none" xmlns="http://www.w3.org/2000/svg">
<g clip-path="url(#clip0_39_556)">
<path d="M11.7406 22.0298C10.3828 22.0298 9.27808 23.1345 9.27808 24.4923C9.27808 25.8502 10.3828 26.9548 11.7406 26.9548C13.0984 26.9548 14.2031 25.8502 14.2031 24.4923C14.2031 23.1345 13.0984 22.0298 11.7406 22.0298ZM11.7406 25.5798C11.1409 25.5798 10.653 25.0919 10.653 24.4922C10.653 23.8925 11.141 23.4046 11.7406 23.4046C12.3403 23.4046 12.8282 23.8926 12.8282 24.4922C12.8282 25.092 12.3403 25.5798 11.7406 25.5798Z" fill="#2B313E"/>
<path d="M20.3783 22.0298C19.0205 22.0298 17.9158 23.1345 17.9158 24.4923C17.9158 25.8502 19.0205 26.9548 20.3783 26.9548C21.7361 26.9548 22.8408 25.8502 22.8408 24.4923C22.8408 23.1345 21.7361 22.0298 20.3783 22.0298ZM20.3783 25.5798C19.7786 25.5798 19.2907 25.0919 19.2907 24.4922C19.2907 23.8925 19.7786 23.4046 20.3783 23.4046C20.978 23.4046 21.4659 23.8926 21.4659 24.4922C21.4659 25.092 20.9779 25.5798 20.3783 25.5798Z" fill="#2B313E"/>
<path d="M20.9845 9.0647H11.1325C10.7529 9.0647 10.4451 9.37248 10.4451 9.75218C10.4451 10.1319 10.7529 10.4397 11.1325 10.4397H20.9845C21.3642 10.4397 21.6719 10.1319 21.6719 9.75218C21.6719 9.37242 21.3642 9.0647 20.9845 9.0647Z" fill="#2B313E"/>
<path d="M20.4484 12.6348H11.6689C11.2892 12.6348 10.9814 12.9425 10.9814 13.3222C10.9814 13.7019 11.2892 14.0097 11.6689 14.0097H20.4483C20.828 14.0097 21.1358 13.7019 21.1358 13.3222C21.1358 12.9426 20.828 12.6348 20.4484 12.6348Z" fill="#2B313E"/>
<path d="M27.6906 6.00175C27.4284 5.67997 27.0399 5.49545 26.6248 5.49545H5.21055L4.77808 3.39605C4.68779 2.95811 4.38909 2.59039 3.97888 2.41227L0.961378 1.10251C0.613018 0.951185 0.208166 1.11104 0.0570638 1.45929C-0.0942021 1.80765 0.0656497 2.21255 0.413846 2.36366L3.4314 3.67348L6.75783 19.8206C6.88886 20.4565 7.4552 20.9181 8.10451 20.9181H24.5746C24.9543 20.9181 25.262 20.6103 25.262 20.2306C25.262 19.8509 24.9543 19.5431 24.5746 19.5431H8.10456L7.69993 17.579H24.7019C25.3511 17.579 25.9175 17.1174 26.0485 16.4815L27.9715 7.14767C28.0552 6.74123 27.9528 6.32348 27.6906 6.00175ZM24.7019 16.2041H7.4167L5.49383 6.87035L26.6247 6.87041L24.7019 16.2041Z" fill="#2B313E"/>
</g>
<defs>
<clipPath id="clip0_39_556">
<rect width="28" height="28" fill="white"/>
</clipPath>
</defs>
</svg>
