<svg width="35" height="36" viewBox="0 0 35 36" fill="none" xmlns="http://www.w3.org/2000/svg">
<g clip-path="url(#clip0_39_2578)">
<path d="M23.6425 22.8815C23.0842 22.3235 22.1806 22.3232 21.6222 22.8815C19.0613 25.4483 19.175 25.3138 19.1035 25.4163C18.0657 26.2793 15.6139 25.6948 12.7888 22.8693C11.017 21.0978 10.3231 19.6812 10.0531 18.8049C9.87099 18.2138 9.664 17.1236 10.3245 16.4628C10.362 16.4257 10.3936 16.3851 10.4205 16.3423L12.7517 14.0111C13.3086 13.4542 13.3086 12.5478 12.7517 11.9909L6.89982 6.13868C6.34249 5.58203 5.43618 5.58203 4.87919 6.13868C4.32049 6.69772 3.24731 7.77083 2.44012 8.57808C0.362683 10.6556 -0.363567 13.3541 0.339851 16.3818C1.12161 19.7479 3.6522 23.5884 7.86102 27.7975C11.4182 31.3546 16.5394 35.4208 21.5678 35.4208C23.7202 35.4208 25.6295 34.668 27.0799 33.2179C27.1174 33.1808 27.1487 33.1399 27.1759 33.0971L29.5067 30.7662C30.0637 30.2093 30.0637 29.3029 29.5067 28.7459L23.6425 22.8815ZM5.86486 7.12428C5.87881 7.11068 5.90061 7.11102 5.91422 7.12428L11.7661 12.9765C11.7797 12.9901 11.7797 13.0119 11.7661 13.0255L9.81959 14.9722L3.9184 9.07102L5.86486 7.12428ZM19.7007 33.8196C16.4467 33.1175 12.7946 30.7598 8.84629 26.8119C4.8247 22.7899 2.41934 19.1749 1.69726 16.0665C1.15798 13.7425 1.58119 11.7318 2.95528 10.0792L8.9076 16.0314C8.4081 16.87 8.33865 17.9741 8.72105 19.2154C9.17523 20.6883 10.2409 22.2925 11.8032 23.8549C13.3656 25.417 14.9699 26.4829 16.4427 26.9367C17.505 27.2643 18.6712 27.3191 19.6266 26.7499L25.5737 32.6977C24.0314 33.9306 22.0165 34.3191 19.7007 33.8196ZM28.5214 29.7807L26.5746 31.7275L20.6615 25.8136L22.6076 23.8672C22.6205 23.8539 22.6431 23.8533 22.6567 23.8672L28.5214 29.7316C28.535 29.7449 28.535 29.7671 28.5214 29.7807Z" fill="white"/>
<path d="M32.1331 0.579346H19.5892C18.0516 0.579346 16.8013 1.82984 16.8013 3.36704V10.3363C16.8013 11.6327 17.6909 12.7253 18.8919 13.0358V15.9117C18.8919 16.2974 19.2058 16.6086 19.5892 16.6086C19.7703 16.6086 19.9487 16.5378 20.0814 16.4043L23.3621 13.124H32.1331C33.6707 13.124 34.9208 11.8735 34.9208 10.3363V3.36704C34.9208 1.82984 33.6707 0.579346 32.1331 0.579346ZM33.5269 10.3363C33.5269 11.1047 32.9018 11.7301 32.133 11.7301H23.0734C22.8889 11.7301 22.7111 11.8033 22.5804 11.934L20.2857 14.2291V12.427C20.2857 12.0419 19.9738 11.7301 19.5892 11.7301C18.8204 11.7301 18.1953 11.1046 18.1953 10.3362V3.36704C18.1953 2.59861 18.8204 1.97319 19.5892 1.97319H32.1331C32.9019 1.97319 33.527 2.59861 33.527 3.36704L33.5269 10.3363Z" fill="white"/>
<path d="M25.8612 4.76099C24.7084 4.76099 23.7708 5.69895 23.7708 6.85176C23.7708 8.00457 24.7084 8.94253 25.8612 8.94253C27.0139 8.94253 27.9523 8.00457 27.9523 6.85176C27.9523 5.69895 27.0139 4.76099 25.8612 4.76099ZM25.8612 7.54868C25.4771 7.54868 25.1646 7.23614 25.1646 6.85176C25.1646 6.46737 25.4771 6.15483 25.8612 6.15483C26.2452 6.15483 26.5584 6.46737 26.5584 6.85176C26.5584 7.23614 26.2452 7.54868 25.8612 7.54868Z" fill="white"/>
<path d="M30.7398 4.76099C29.5863 4.76099 28.6487 5.69895 28.6487 6.85176C28.6487 8.00457 29.5863 8.94253 30.7398 8.94253C31.8925 8.94253 32.8302 8.00457 32.8302 6.85176C32.8302 5.69895 31.8925 4.76099 30.7398 4.76099ZM30.7398 7.54868C30.3551 7.54868 30.0425 7.23614 30.0425 6.85176C30.0425 6.46737 30.3551 6.15483 30.7398 6.15483C31.1238 6.15483 31.4363 6.46737 31.4363 6.85176C31.4363 7.23614 31.1238 7.54868 30.7398 7.54868Z" fill="white"/>
<path d="M20.983 4.76099C19.8301 4.76099 18.8918 5.69895 18.8918 6.85176C18.8918 8.00457 19.8301 8.94253 20.983 8.94253C22.1358 8.94253 23.0734 8.00457 23.0734 6.85176C23.0734 5.69895 22.1358 4.76099 20.983 4.76099ZM20.983 7.54868C20.5982 7.54868 20.2857 7.23614 20.2857 6.85176C20.2857 6.46737 20.5982 6.15483 20.983 6.15483C21.367 6.15483 21.6795 6.46737 21.6795 6.85176C21.6795 7.23614 21.367 7.54868 20.983 7.54868Z" fill="white"/>
</g>
<defs>
<clipPath id="clip0_39_2578">
<rect width="35" height="35" fill="white" transform="translate(0 0.5)"/>
</clipPath>
</defs>
</svg>
