<svg width="20" height="20" viewBox="0 0 20 20" fill="none" xmlns="http://www.w3.org/2000/svg">
<path d="M18.907 4.68185H17.792V3.76017C17.792 3.58759 17.652 3.44767 17.4795 3.44767H17.3389V1.76587C17.3389 1.59329 17.1989 1.45337 17.0264 1.45337H15.0573C14.8848 1.45337 14.7448 1.59329 14.7448 1.76587V3.44767H14.6042C14.4316 3.44767 14.2917 3.58759 14.2917 3.76017V4.68188H5.70828V3.76017C5.70828 3.58759 5.56836 3.44767 5.39578 3.44767H5.2552V1.76587C5.2552 1.59329 5.11527 1.45337 4.9427 1.45337H2.97363C2.80105 1.45337 2.66113 1.59329 2.66113 1.76587V3.44767H2.52055C2.34797 3.44767 2.20805 3.58759 2.20805 3.76017V4.68188H1.09297C0.490273 4.68188 0 5.1722 0 5.77485V17.4535C0 18.0562 0.490312 18.5465 1.09297 18.5465H18.907C19.5097 18.5465 20 18.0562 20 17.4535V5.77485C20 5.17216 19.5097 4.68185 18.907 4.68185ZM15.3698 2.07837H16.7139V3.44767H15.3698V2.07837ZM14.9167 4.07267H17.1669V4.68188H14.9167V4.07267ZM3.28613 2.07837H4.6302V3.44767H3.28613V2.07837ZM2.83305 4.07267H5.08324V4.68188H2.83305V4.07267ZM1.09297 5.30685H18.907C19.1651 5.30685 19.375 5.51677 19.375 5.77481V6.83485H0.625V5.77481C0.625 5.51677 0.834922 5.30685 1.09297 5.30685ZM19.375 7.45989V15.761H0.625V7.45989H19.375ZM18.907 17.9215H1.09297C0.834922 17.9215 0.625 17.7116 0.625 17.4535V16.386H19.375V17.4535C19.375 17.7116 19.1651 17.9215 18.907 17.9215ZM13.7426 10.2158C13.7426 10.0433 13.8825 9.90333 14.0551 9.90333H15.1501V8.80837C15.1501 8.63579 15.29 8.49587 15.4626 8.49587C15.6352 8.49587 15.7751 8.63579 15.7751 8.80837V9.90333H16.87C17.0426 9.90333 17.1825 10.0433 17.1825 10.2158C17.1825 10.3884 17.0426 10.5283 16.87 10.5283H15.7751V11.6233C15.7751 11.7958 15.6352 11.9358 15.4626 11.9358C15.29 11.9358 15.1501 11.7958 15.1501 11.6233V10.5283H14.0551C13.8825 10.5283 13.7426 10.3884 13.7426 10.2158ZM2.8175 10.4042C2.8175 10.2317 2.95742 10.0917 3.13 10.0917H5.94492C6.1175 10.0917 6.25742 10.2317 6.25742 10.4042C6.25742 10.5768 6.1175 10.7167 5.94492 10.7167H3.13C2.95742 10.7167 2.8175 10.5768 2.8175 10.4042ZM7.76531 12.3772H9.3873L9.13918 14.5031C9.12309 14.6413 9.20023 14.7734 9.32848 14.8274C9.3677 14.8439 9.40883 14.8518 9.44949 14.8518C9.5418 14.8518 9.63191 14.8108 9.69266 14.7358L12.4777 11.2906C12.5534 11.197 12.5686 11.0682 12.5167 10.9595C12.4648 10.8508 12.3551 10.7816 12.2347 10.7816H10.5929L10.7137 8.70716C10.7216 8.57067 10.6399 8.44485 10.512 8.39661C10.3841 8.34841 10.2396 8.38895 10.1554 8.49669L7.51906 11.8724C7.44551 11.9665 7.43207 12.0943 7.48445 12.2017C7.53684 12.309 7.64582 12.3772 7.76531 12.3772ZM10.0315 9.67071L9.94965 11.076C9.94465 11.1618 9.97527 11.246 10.0343 11.3086C10.0934 11.3712 10.1756 11.4066 10.2616 11.4066H11.5802L9.88508 13.5036L10.0487 12.1009C10.0591 12.0123 10.0311 11.9236 9.97176 11.8569C9.91246 11.7903 9.82754 11.7522 9.73832 11.7522H8.40586L10.0315 9.67071Z" fill="black"/>
</svg>
