<svg width="20" height="20" viewBox="0 0 20 20" fill="none" xmlns="http://www.w3.org/2000/svg">
<g clip-path="url(#clip0_39_13644)">
<path d="M18.2214 10.4301L15.4421 6.1769C14.9921 5.49155 14.2238 5.09846 13.3343 5.09846H13.3249C13.515 4.22975 13.5808 3.32791 13.5053 2.4978C13.5002 2.44149 13.4799 2.38763 13.4465 2.34196C13.4132 2.29628 13.3681 2.2605 13.3161 2.23842L9.86086 0.773264C9.82231 0.756944 9.78088 0.748535 9.73902 0.748535C9.69717 0.748535 9.65573 0.756944 9.61719 0.773264L6.14004 2.24358C6.08277 2.26779 6.03402 2.30854 6.00003 2.36061C5.96605 2.41268 5.94837 2.47371 5.94926 2.53588C5.96098 3.3601 5.98938 4.24623 6.11523 5.09654L6.07227 5.10502C5.98 5.12307 5.89895 5.13897 5.88891 5.14084C5.12195 5.27541 4.49258 5.72233 4.16207 6.36701L2.14453 10.3023C1.62022 10.4397 1.15614 10.7468 0.824719 11.1757C0.493301 11.6046 0.313192 12.1311 0.3125 12.6731V16.5084C0.312759 16.6618 0.363113 16.8109 0.4559 16.933C0.548687 17.0551 0.678829 17.1436 0.826523 17.185V17.9194C0.826927 18.2727 0.967454 18.6114 1.21727 18.8612C1.46709 19.111 1.80581 19.2515 2.1591 19.2519H3.97375C4.32704 19.2515 4.66576 19.111 4.91558 18.8612C5.1654 18.6114 5.30592 18.2727 5.30633 17.9194V17.2115H14.6937V17.9192C14.6941 18.2725 14.8346 18.6112 15.0844 18.861C15.3342 19.1108 15.673 19.2513 16.0263 19.2517H17.8409C18.1942 19.2513 18.5329 19.1108 18.7827 18.861C19.0325 18.6112 19.1731 18.2725 19.1735 17.9192V17.1848C19.3211 17.1434 19.4513 17.055 19.544 16.9329C19.6368 16.8108 19.6872 16.6618 19.6875 16.5084V12.6731C19.687 12.1973 19.5481 11.732 19.2878 11.3338C19.0275 10.9355 18.657 10.6216 18.2214 10.4301ZM9.73871 1.40033L12.8971 2.73959C13.0333 4.91592 12.1539 7.7635 10.1983 8.92319C10.0668 9.00122 9.93052 9.07082 9.79023 9.13158C8.53746 8.54174 7.7323 7.8169 7.26215 6.85815C6.69574 5.70264 6.60316 4.1433 6.57758 2.73705L9.73871 1.40033ZM4.71812 6.65205C4.95844 6.1833 5.42449 5.85678 5.99664 5.75639C6.00309 5.75526 6.09129 5.73803 6.19223 5.71826L6.22625 5.71158C6.32641 6.20288 6.48582 6.68021 6.70098 7.13311C7.25352 8.26014 8.19176 9.09405 9.65371 9.75697C9.6916 9.77415 9.73254 9.78359 9.77413 9.78474C9.81572 9.78589 9.85712 9.77872 9.8959 9.76365C10.1109 9.67987 10.3186 9.57856 10.517 9.46072C11.5589 8.84287 12.3957 7.78229 12.9368 6.39369C13.0216 6.176 13.0975 5.95178 13.1649 5.72346H13.3342C14.0094 5.72346 14.5873 6.01377 14.9193 6.51936L17.3411 10.2259C17.3067 10.2244 17.2722 10.2232 17.2374 10.2232H15.45C15.3778 9.78198 15.1512 9.38075 14.8105 9.09122C14.4698 8.8017 14.0372 8.64273 13.5901 8.64273C13.143 8.64273 12.7105 8.8017 12.3698 9.09122C12.0291 9.38075 11.8024 9.78198 11.7303 10.2232H2.88746L4.71812 6.65205ZM14.8125 10.2232H12.3677C12.4356 9.95038 12.5928 9.70809 12.8144 9.53493C13.0359 9.36177 13.309 9.26771 13.5901 9.26771C13.8713 9.26771 14.1444 9.36177 14.3659 9.53493C14.5874 9.70809 14.7446 9.95038 14.8125 10.2232ZM0.9375 12.6731C0.938038 12.1893 1.13047 11.7254 1.47258 11.3833C1.81468 11.0412 2.27853 10.8488 2.76234 10.8482H17.2377C17.7215 10.8488 18.1853 11.0412 18.5274 11.3833C18.8695 11.7254 19.062 12.1893 19.0625 12.6731V16.5084C19.0622 16.5291 19.0539 16.5488 19.0393 16.5634C19.0247 16.578 19.005 16.5863 18.9844 16.5865H15.25L13.7519 14.2146C13.7237 14.17 13.6847 14.1333 13.6385 14.1078C13.5923 14.0823 13.5404 14.069 13.4877 14.069H6.70398C6.65123 14.069 6.59934 14.0823 6.55314 14.1078C6.50694 14.1332 6.46794 14.17 6.43977 14.2146L4.94164 16.5865H1.01562C0.99499 16.5863 0.975277 16.578 0.960684 16.5634C0.946092 16.5488 0.937773 16.5291 0.9375 16.5084V12.6731ZM14.511 16.5865H5.68086L6.87617 14.694H13.3156L14.511 16.5865ZM4.68133 17.9192C4.68111 18.1068 4.60649 18.2866 4.47384 18.4192C4.34119 18.5519 4.16134 18.6265 3.97375 18.6267H2.1591C1.97151 18.6265 1.79166 18.5519 1.65901 18.4192C1.52636 18.2866 1.45174 18.1068 1.45152 17.9192V17.2115H4.68133V17.9192ZM17.8409 18.6267H16.0263C15.8387 18.6265 15.6588 18.5519 15.5262 18.4192C15.3935 18.2866 15.3189 18.1068 15.3187 17.9192V17.2115H18.5485V17.9192C18.5483 18.1068 18.4736 18.2866 18.341 18.4192C18.2083 18.5519 18.0285 18.6265 17.8409 18.6267ZM3.06641 15.3971C3.39862 15.3971 3.72337 15.2986 3.99959 15.114C4.27581 14.9294 4.4911 14.6671 4.61824 14.3602C4.74537 14.0533 4.77863 13.7155 4.71382 13.3897C4.64901 13.0639 4.48903 12.7646 4.25412 12.5297C4.01922 12.2948 3.71992 12.1348 3.3941 12.07C3.06827 12.0052 2.73054 12.0384 2.42362 12.1656C2.11669 12.2927 1.85436 12.508 1.6698 12.7842C1.48523 13.0604 1.38672 13.3852 1.38672 13.7174C1.38722 14.1627 1.56434 14.5897 1.87924 14.9046C2.19413 15.2195 2.62108 15.3966 3.06641 15.3971ZM3.06641 12.6627C3.275 12.6627 3.47892 12.7246 3.65236 12.8405C3.8258 12.9564 3.96098 13.1211 4.04081 13.3138C4.12064 13.5065 4.14152 13.7186 4.10083 13.9232C4.06013 14.1278 3.95968 14.3157 3.81218 14.4632C3.66468 14.6107 3.47676 14.7111 3.27217 14.7518C3.06758 14.7925 2.85551 14.7716 2.66279 14.6918C2.47008 14.612 2.30536 14.4768 2.18947 14.3034C2.07358 14.1299 2.01172 13.926 2.01172 13.7174C2.01203 13.4378 2.12325 13.1697 2.32097 12.972C2.5187 12.7742 2.78678 12.663 3.06641 12.6627ZM16.9336 15.3971C17.2658 15.3971 17.5906 15.2986 17.8668 15.114C18.143 14.9294 18.3583 14.6671 18.4854 14.3602C18.6126 14.0533 18.6458 13.7155 18.581 13.3897C18.5162 13.0639 18.3562 12.7646 18.1213 12.5297C17.8864 12.2948 17.5871 12.1348 17.2613 12.07C16.9355 12.0052 16.5977 12.0384 16.2908 12.1656C15.9839 12.2927 15.7216 12.508 15.537 12.7842C15.3524 13.0604 15.2539 13.3852 15.2539 13.7174C15.2544 14.1627 15.4315 14.5897 15.7464 14.9046C16.0613 15.2195 16.4883 15.3966 16.9336 15.3971ZM16.9336 12.6627C17.1422 12.6627 17.3461 12.7246 17.5195 12.8405C17.693 12.9564 17.8282 13.1211 17.908 13.3138C17.9878 13.5065 18.0087 13.7186 17.968 13.9232C17.9273 14.1278 17.8269 14.3157 17.6794 14.4632C17.5319 14.6107 17.3439 14.7111 17.1394 14.7518C16.9348 14.7925 16.7227 14.7716 16.53 14.6918C16.3373 14.612 16.1725 14.4768 16.0567 14.3034C15.9408 14.1299 15.8789 13.926 15.8789 13.7174C15.8792 13.4378 15.9904 13.1697 16.1882 12.972C16.3859 12.7743 16.654 12.663 16.9336 12.6627ZM5.27344 13.0533C5.27344 12.9705 5.30636 12.891 5.36497 12.8324C5.42357 12.7738 5.50306 12.7408 5.58594 12.7408H14.4922C14.5751 12.7408 14.6546 12.7738 14.7132 12.8324C14.7718 12.891 14.8047 12.9705 14.8047 13.0533C14.8047 13.1362 14.7718 13.2157 14.7132 13.2743C14.6546 13.3329 14.5751 13.3658 14.4922 13.3658H5.58594C5.50306 13.3658 5.42357 13.3329 5.36497 13.2743C5.30636 13.2157 5.27344 13.1362 5.27344 13.0533ZM6.50547 11.7912C6.50547 11.7083 6.53839 11.6288 6.597 11.5702C6.6556 11.5116 6.73509 11.4787 6.81797 11.4787H13.2602C13.343 11.4787 13.4225 11.5116 13.4811 11.5702C13.5397 11.6288 13.5727 11.7083 13.5727 11.7912C13.5727 11.874 13.5397 11.9535 13.4811 12.0121C13.4225 12.0707 13.343 12.1037 13.2602 12.1037H6.81781C6.73493 12.1037 6.65545 12.0707 6.59684 12.0121C6.53824 11.9535 6.50531 11.874 6.50531 11.7912H6.50547ZM8.37293 4.8849C8.31541 4.82608 8.2834 4.74694 8.28386 4.66467C8.28432 4.5824 8.31721 4.50363 8.37539 4.44545C8.43357 4.38727 8.51234 4.35439 8.59461 4.35393C8.67688 4.35346 8.75602 4.38547 8.81484 4.44299C8.94555 4.57369 9.06965 4.71354 9.18965 4.84881C9.29977 4.97291 9.40379 5.09018 9.50371 5.19006C9.52613 5.21188 9.55618 5.22409 9.58746 5.22409C9.61874 5.22409 9.64879 5.21188 9.67121 5.19006C9.90298 4.95829 10.1338 4.72583 10.3637 4.49268C10.5909 4.26311 10.8257 4.02576 11.0586 3.79295C11.1173 3.73494 11.1966 3.70252 11.2791 3.70277C11.3617 3.70303 11.4408 3.73593 11.4992 3.79431C11.5575 3.85268 11.5904 3.93178 11.5907 4.01433C11.5909 4.09689 11.5585 4.17618 11.5005 4.2349C11.2687 4.46668 11.0379 4.69914 10.808 4.93229C10.5808 5.16182 10.3459 5.3992 10.1131 5.63197C9.9736 5.7712 9.78455 5.84939 9.58744 5.84939C9.39034 5.84939 9.20128 5.7712 9.06176 5.63197C8.94848 5.51869 8.83348 5.38912 8.72215 5.26358C8.60805 5.1351 8.49027 5.00233 8.37277 4.88483L8.37293 4.8849Z" fill="black"/>
</g>
<defs>
<clipPath id="clip0_39_13644">
<rect width="20" height="20" fill="white"/>
</clipPath>
</defs>
</svg>
