<svg width="30" height="30" viewBox="0 0 30 30" fill="none" xmlns="http://www.w3.org/2000/svg">
<path d="M15 28.331C14.5729 28.331 14.1611 28.1763 13.8403 27.8952C12.6283 26.8355 11.4599 25.8396 10.429 24.9612L10.4237 24.9566C7.40135 22.381 4.79141 20.1567 2.97546 17.9656C0.945511 15.5161 0 13.1937 0 10.6565C0 8.19145 0.845261 5.91728 2.37991 4.25262C3.93288 2.56828 6.06377 1.64062 8.38074 1.64062C10.1125 1.64062 11.6984 2.18811 13.0943 3.26775C13.7988 3.81271 14.4374 4.47968 15 5.25764C15.5628 4.47968 16.2012 3.81271 16.9059 3.26775C18.3018 2.18811 19.8878 1.64062 21.6195 1.64062C23.9362 1.64062 26.0674 2.56828 27.6203 4.25262C29.155 5.91728 30 8.19145 30 10.6565C30 13.1937 29.0547 15.5161 27.0248 17.9654C25.2088 20.1567 22.5991 22.3808 19.5772 24.9561C18.5445 25.836 17.3742 26.8334 16.1595 27.8957C15.8389 28.1763 15.4269 28.331 15 28.331ZM8.38074 3.39798C6.56044 3.39798 4.88823 4.12445 3.67172 5.44373C2.43713 6.78291 1.75713 8.63411 1.75713 10.6565C1.75713 12.7904 2.5502 14.6988 4.32838 16.8443C6.04706 18.9182 8.60344 21.0967 11.5633 23.6192L11.5688 23.6238C12.6036 24.5057 13.7766 25.5054 14.9975 26.573C16.2257 25.5034 17.4005 24.502 18.4373 23.6188C21.397 21.0963 23.9532 18.9182 25.6718 16.8443C27.4498 14.6988 28.2429 12.7904 28.2429 10.6565C28.2429 8.63411 27.5629 6.78291 26.3283 5.44373C25.112 4.12445 23.4396 3.39798 21.6195 3.39798C20.286 3.39798 19.0617 3.82187 17.9807 4.65775C17.0174 5.40298 16.3463 6.34506 15.9528 7.00424C15.7505 7.34322 15.3944 7.54555 15 7.54555C14.6056 7.54555 14.2495 7.34322 14.0472 7.00424C13.6539 6.34506 12.9829 5.40298 12.0193 4.65775C10.9383 3.82187 9.71397 3.39798 8.38074 3.39798Z" fill="white"/>
</svg>
