<svg width="20" height="20" viewBox="0 0 20 20" fill="none" xmlns="http://www.w3.org/2000/svg">
<g clip-path="url(#clip0_39_13595)">
<path d="M10 0C4.47717 0 0 4.47717 0 10C0 15.5228 4.47717 20 10 20C15.5228 20 20 15.5228 20 10C19.9938 4.47975 15.5203 0.00625 10 0ZM18.972 12.5647L18.3457 12.361L18.1393 12.9943L18.7683 13.1987C18.5082 13.9083 18.1628 14.5837 17.7397 15.21L17.2063 14.8233L16.8143 15.3627L17.3437 15.7473C16.8778 16.3419 16.3422 16.8783 15.7483 17.345L15.3637 16.8157L14.8243 17.2077L15.211 17.741C14.5848 18.1636 13.9095 18.5086 13.2 18.7683L12.9957 18.1393L12.3623 18.3457L12.566 18.972C11.839 19.1802 11.0892 19.2987 10.3333 19.325V18.6667H9.66667V19.325C8.91129 19.2986 8.16196 19.1801 7.43533 18.972L7.639 18.3457L7.00567 18.1393L6.8 18.7683C6.09038 18.5082 5.41496 18.1628 4.78867 17.7397L5.17533 17.2063L4.636 16.8143L4.25133 17.3437C3.65704 16.8774 3.12096 16.3413 2.65467 15.747L3.184 15.3623L2.792 14.823L2.25867 15.2097C1.83683 14.5837 1.49254 13.9089 1.23333 13.2L1.86233 12.9957L1.656 12.3623L1.02967 12.566C0.820917 11.839 0.701833 11.0892 0.675 10.3333H1.33333V9.66667H0.675C0.701375 8.91129 0.819917 8.16196 1.028 7.43533L1.65433 7.639L1.86067 7.00567L1.23333 6.8C1.4935 6.09038 1.83892 5.41496 2.262 4.78867L2.79533 5.17533L3.18733 4.636L2.655 4.25167C3.12129 3.65738 3.65738 3.12129 4.25167 2.655L4.63633 3.18433L5.17567 2.79233L4.789 2.259C5.41533 1.83696 6.09063 1.49254 6.8 1.23333L7.00433 1.86233L7.63767 1.656L7.434 1.02967C8.161 0.820917 8.91079 0.701833 9.66667 0.675V1.33333H10.3333V0.675C11.0887 0.701375 11.838 0.819917 12.5647 1.028L12.361 1.65433L12.9943 1.86067L13.2 1.23333C13.9096 1.4935 14.585 1.83892 15.2113 2.262L14.8247 2.79533L15.364 3.18733L15.7487 2.658C16.343 3.12429 16.879 3.66038 17.3453 4.25467L16.816 4.63933L17.208 5.17867L17.7413 4.792C18.1636 5.41733 18.5085 6.09158 18.7683 6.8L18.1393 7.00433L18.3457 7.63767L18.972 7.434C19.1802 8.16104 19.2987 8.91083 19.325 9.66667H18.6667V10.3333H19.325C19.2986 11.0887 19.1801 11.838 18.972 12.5647Z" fill="#2B313E"/>
<path d="M10.0003 2.66675C5.95024 2.66675 2.66699 5.95 2.66699 10.0001C2.66699 14.0502 5.95024 17.3334 10.0003 17.3334C14.0504 17.3334 17.3337 14.0502 17.3337 10.0001C17.3291 5.95191 14.0485 2.67133 10.0003 2.66675ZM10.0003 16.6667C6.31841 16.6667 3.33366 13.682 3.33366 10.0001C3.33366 6.31816 6.31841 3.33341 10.0003 3.33341C13.6822 3.33341 16.667 6.31816 16.667 10.0001C16.6628 13.6802 13.6805 16.6625 10.0003 16.6667Z" fill="#2B313E"/>
<path d="M9.99967 4.33325C6.87005 4.33325 4.33301 6.87029 4.33301 9.99992C4.33301 13.1295 6.87005 15.6666 9.99967 15.6666C13.1293 15.6666 15.6663 13.1295 15.6663 9.99992C15.6628 6.87175 13.1278 4.33675 9.99967 4.33325ZM14.286 7.43892C14.6735 8.08225 14.9098 8.80521 14.977 9.55325L12.8893 9.38458C12.7059 9.36917 12.5697 9.20792 12.5851 9.0245C12.5925 8.93754 12.6336 8.85692 12.6997 8.79992L14.286 7.43892ZM11.1127 5.12925L10.3073 7.06259C10.2365 7.2325 10.0413 7.31284 9.87142 7.242C9.7903 7.20817 9.72584 7.14371 9.69201 7.06259L8.88667 5.12925C9.61867 4.95679 10.3807 4.95679 11.1127 5.12925ZM5.71334 7.43883L7.29967 8.79992C7.43947 8.91971 7.45563 9.13017 7.33584 9.26992C7.27863 9.33667 7.19734 9.37813 7.10967 9.38525L5.02201 9.55392C5.08917 8.80559 5.32559 8.08233 5.71334 7.43883ZM8.52034 12.5579L8.03634 14.5973C7.34672 14.2995 6.73267 13.851 6.23934 13.2846H6.23834L8.02234 12.1963C8.17947 12.1003 8.38459 12.1499 8.48055 12.307C8.52642 12.3821 8.54072 12.4723 8.52034 12.5579ZM11.963 14.5973H11.962L11.477 12.5579C11.4344 12.3788 11.545 12.1991 11.7241 12.1565C11.8097 12.1361 11.8999 12.1504 11.975 12.1963L13.759 13.2846C13.266 13.8509 12.6523 14.2994 11.963 14.5973ZM12.323 11.6269C11.8515 11.3393 11.2362 11.4882 10.9485 11.9597C10.811 12.185 10.7682 12.4555 10.8293 12.7123L11.3293 14.8149C10.4598 15.0616 9.53884 15.0616 8.66934 14.8149H8.66867L9.16867 12.7123C9.29642 12.175 8.96442 11.6358 8.42709 11.508C8.17047 11.447 7.90017 11.4899 7.67501 11.6273L5.83034 12.7533C5.33226 12 5.04901 11.1252 5.01101 10.2229L7.16367 10.0489C7.71409 10.0038 8.12372 9.52096 8.07859 8.97054C8.05705 8.70808 7.93288 8.46471 7.73301 8.29325L6.09301 6.88659C6.65655 6.1815 7.39988 5.64154 8.24467 5.32359L9.07534 7.31792C9.28763 7.82775 9.87305 8.069 10.3829 7.85667C10.6266 7.75521 10.8202 7.56154 10.9217 7.31792L11.7527 5.32359C12.5974 5.64163 13.3407 6.18159 13.9043 6.88659L12.2663 8.29325C11.8472 8.65288 11.7989 9.28421 12.1585 9.70334C12.3302 9.90342 12.5739 10.0276 12.8367 10.0489L14.9893 10.2229C14.9513 11.1252 14.6681 12 14.17 12.7533L12.323 11.6269Z" fill="#2B313E"/>
<path d="M10.0003 8.66675C9.26395 8.66675 8.66699 9.26371 8.66699 10.0001C8.66699 10.7365 9.26395 11.3334 10.0003 11.3334C10.7367 11.3334 11.3337 10.7365 11.3337 10.0001C11.3337 9.26371 10.7367 8.66675 10.0003 8.66675ZM10.0003 10.6667C9.63212 10.6667 9.33366 10.3683 9.33366 10.0001C9.33366 9.63187 9.63212 9.33341 10.0003 9.33341C10.3685 9.33341 10.667 9.63187 10.667 10.0001C10.667 10.3683 10.3685 10.6667 10.0003 10.6667Z" fill="#2B313E"/>
</g>
<defs>
<clipPath id="clip0_39_13595">
<rect width="20" height="20" fill="white"/>
</clipPath>
</defs>
</svg>
