<svg width="30" height="30" viewBox="0 0 30 30" fill="none" xmlns="http://www.w3.org/2000/svg">
<path d="M24.5801 29.9999H5.41406C3.53906 29.9941 2.02148 28.4765 2.01562 26.6015V25.1015C2.01562 21.4335 3.55664 17.9355 6.26953 15.4687C7.40039 14.4433 9.08203 14.3027 10.3652 15.1289C11.707 15.9902 13.3066 16.4472 15 16.4472C16.6934 16.4472 18.293 15.9902 19.6348 15.1289C20.918 14.3027 22.5996 14.4433 23.7305 15.4687C26.4434 17.9355 27.9902 21.4335 27.9844 25.1015V26.6015C27.9785 28.4824 26.4551 29.9999 24.5801 29.9999ZM8.53711 15.7617C7.98633 15.7617 7.45898 15.9667 7.05469 16.3359C4.58789 18.58 3.18164 21.7675 3.18164 25.1015V26.6015C3.1875 27.832 4.17773 28.8222 5.4082 28.8281H24.5742C25.8047 28.8281 26.8008 27.832 26.8008 26.6015V25.1015C26.8008 21.7675 25.3945 18.5859 22.9277 16.3359C22.1895 15.6679 21.0938 15.5742 20.2559 16.1132C18.7266 17.0976 16.9043 17.6191 14.9883 17.6191C13.0723 17.6191 11.25 17.0976 9.7207 16.1132C9.375 15.8847 8.95898 15.7617 8.53711 15.7617Z" fill="white"/>
<path d="M15 15.1172C10.8281 15.1113 7.44727 11.7305 7.44141 7.55859C7.44141 3.39258 10.8281 0 15 0C19.1719 0.00585938 22.5527 3.38672 22.5586 7.55859C22.5527 11.7246 19.166 15.1172 15 15.1172ZM15 1.17773C11.4727 1.17773 8.61328 4.03711 8.61328 7.56445C8.61328 11.0918 11.4727 13.9512 15 13.9512C18.5273 13.9512 21.3867 11.0918 21.3867 7.56445C21.3809 4.03711 18.5273 1.17773 15 1.17773Z" fill="white"/>
</svg>
